<svg id="cycling" xmlns="http://www.w3.org/2000/svg" xmlns:xlink="http://www.w3.org/1999/xlink" version="1.1" x="0px" y="0px" viewBox="0 0 125 125" enable-background="new 0 0 100 100" xml:space="preserve"><path d="M70.047,33.415h3.361v3.352h-3.361V33.415z M73.408,33.415h3.332v-6.683h-3.332V33.415z M66.715,26.732h6.693v-3.351H63.365  v6.682h3.35V26.732z M66.715,50.131h-3.35v3.332h3.35V50.131z M73.408,63.506h3.332v-6.683h-3.332V63.506z M90.104,53.463v13.375  h3.352V53.463H90.104z M86.773,70.189h3.331v-3.351h-3.331V70.189z M90.104,53.463v-3.332h-3.331v3.332H90.104z M83.423,73.52h3.351  v-3.331h-3.351V73.52z M86.773,50.131V46.78h-3.351v3.351H86.773z M70.047,73.52v3.352h13.376V73.52H70.047z M70.047,56.824h3.361  v-6.692h-3.361V56.824z M66.715,70.189v3.331h3.332v-3.331H66.715z M70.047,46.78h13.376v-3.332H66.715v6.683h3.332V46.78z   M63.365,66.838v3.351h3.35v-3.351H63.365z M66.715,36.767h-3.35v6.682h3.35V36.767z M63.365,53.463h-3.332v13.375h3.332V53.463z   M63.365,30.063H33.284v6.703h3.35v-3.352h23.399v3.352h3.332V30.063z M56.682,43.449h3.352v-6.682h-3.352V43.449z M53.351,50.131  h3.331v-6.683h-3.331V50.131z M50,56.824h3.351v-6.692H50V56.824z M46.648,60.155h-6.683v-6.692h-3.332v6.692H23.259v-3.332h-3.351  v6.683h16.726v3.332h3.332v-3.332H50v-6.683h-3.352V60.155z M43.317,56.824h3.331v-6.692h-3.331V56.824z M39.966,50.131h3.352  v-6.683h-3.352V50.131z M36.634,43.449h3.332v-6.682h-3.332V43.449z M33.284,70.189h3.35v-3.351h-3.35V70.189z M33.284,50.131v3.332  h3.35v-3.332H33.284z M29.952,73.52h3.332v-3.331h-3.332V73.52z M33.284,36.767h-3.332v6.682h3.332V36.767z M33.284,23.381h6.682  V20.05H26.591v3.332h3.361v6.682h3.332V23.381z M16.576,73.52v3.352h13.376V73.52H16.576z M26.591,50.131h-3.332v6.692h3.332V50.131  z M26.591,46.78v3.351h6.693V46.78h-3.332v-3.332H16.576v3.332H26.591z M13.226,70.189v3.331h3.351v-3.331H13.226z M16.576,46.78  h-3.351v3.351h3.351V46.78z M9.895,66.838v3.351h3.331v-3.351H9.895z M13.226,50.131H9.895v3.332h3.331V50.131z M9.895,53.463H6.543  v13.375h3.352V53.463z"/></svg>