<svg id="driving" xmlns="http://www.w3.org/2000/svg" viewBox="0 0 512 640" x="0px" y="0px"><title>car, transport, transportation, vehicle, pixel, digital, sign, art, nft</title><g><rect x="184" y="88" width="192" height="24"/><rect x="376" y="112" width="24" height="24"/><polygon points="160 232 160 136 136 136 136 208 64 208 64 232 160 232"/><rect x="40" y="352" width="48" height="24"/><rect x="184" y="352" width="144" height="24"/><rect x="40" y="232" width="24" height="24"/><polygon points="40 304 88 304 88 280 40 280 40 256 16 256 16 352 40 352 40 304"/><rect x="424" y="352" width="48" height="24"/><rect x="448" y="232" width="24" height="24"/><polygon points="472 256 472 280 448 280 448 304 472 304 472 352 496 352 496 256 472 256"/><polygon points="400 232 448 232 448 208 424 208 424 136 400 136 400 232"/><rect x="160" y="112" width="24" height="24"/><rect x="208" y="136" width="144" height="24"/><rect x="328" y="256" width="48" height="24"/><rect x="88" y="328" width="24" height="24"/><rect x="112" y="304" width="48" height="24"/><rect x="160" y="328" width="24" height="24"/><rect x="88" y="376" width="24" height="24"/><rect x="112" y="400" width="48" height="24"/><rect x="160" y="376" width="24" height="24"/><rect x="328" y="328" width="24" height="24"/><rect x="352" y="304" width="48" height="24"/><rect x="400" y="328" width="24" height="24"/><rect x="328" y="376" width="24" height="24"/><rect x="352" y="400" width="48" height="24"/><rect x="400" y="376" width="24" height="24"/><polygon points="352 208 208 208 208 160 184 160 184 232 376 232 376 160 352 160 352 208"/></g></svg>